<mxfile host="65bd71144e">
    <diagram id="qwzCCz9VnIrBMhw9Tk1o" name="Page-1">
        <mxGraphModel dx="1579" dy="1222" grid="1" gridSize="10" guides="1" tooltips="1" connect="1" arrows="1" fold="1" page="1" pageScale="1" pageWidth="827" pageHeight="1169" math="0" shadow="0">
            <root>
                <mxCell id="0"/>
                <mxCell id="1" parent="0"/>
                <mxCell id="2" value="Пользователь" style="shape=umlActor;verticalLabelPosition=bottom;verticalAlign=top;html=1;outlineConnect=0;" parent="1" vertex="1">
                    <mxGeometry x="310" y="410" width="30" height="60" as="geometry"/>
                </mxCell>
                <mxCell id="4" value="Отправить сообщение в чат" style="ellipse;whiteSpace=wrap;html=1;" parent="1" vertex="1">
                    <mxGeometry x="530" y="500" width="110" height="70" as="geometry"/>
                </mxCell>
                <mxCell id="5" value="Просмотреть пользователя" style="ellipse;whiteSpace=wrap;html=1;" parent="1" vertex="1">
                    <mxGeometry x="280" y="280" width="110" height="70" as="geometry"/>
                </mxCell>
                <mxCell id="8" value="" style="endArrow=none;html=1;" parent="1" source="2" target="5" edge="1">
                    <mxGeometry width="50" height="50" relative="1" as="geometry">
                        <mxPoint x="390" y="610" as="sourcePoint"/>
                        <mxPoint x="440" y="560" as="targetPoint"/>
                    </mxGeometry>
                </mxCell>
                <mxCell id="10" value="" style="endArrow=none;html=1;" parent="1" source="2" target="4" edge="1">
                    <mxGeometry width="50" height="50" relative="1" as="geometry">
                        <mxPoint x="390" y="560" as="sourcePoint"/>
                        <mxPoint x="440" y="510" as="targetPoint"/>
                    </mxGeometry>
                </mxCell>
                <mxCell id="12" value="Администратор" style="shape=umlActor;verticalLabelPosition=bottom;verticalAlign=top;html=1;outlineConnect=0;" parent="1" vertex="1">
                    <mxGeometry x="230" y="470" width="30" height="60" as="geometry"/>
                </mxCell>
                <mxCell id="13" style="edgeStyle=none;html=1;" parent="1" source="12" target="2" edge="1">
                    <mxGeometry relative="1" as="geometry">
                        <mxPoint x="210" y="620" as="sourcePoint"/>
                        <Array as="points"/>
                    </mxGeometry>
                </mxCell>
                <mxCell id="17" style="edgeStyle=none;html=1;endArrow=none;endFill=0;" parent="1" source="16" target="2" edge="1">
                    <mxGeometry relative="1" as="geometry"/>
                </mxCell>
                <mxCell id="16" value="Начать чат" style="ellipse;whiteSpace=wrap;html=1;" parent="1" vertex="1">
                    <mxGeometry x="464" y="430" width="110" height="70" as="geometry"/>
                </mxCell>
                <mxCell id="22" value="Оставить комментарий" style="ellipse;whiteSpace=wrap;html=1;" vertex="1" parent="1">
                    <mxGeometry x="170" y="340" width="110" height="70" as="geometry"/>
                </mxCell>
                <mxCell id="23" value="" style="endArrow=none;html=1;" edge="1" parent="1" target="22" source="2">
                    <mxGeometry width="50" height="50" relative="1" as="geometry">
                        <mxPoint x="620" y="659.8063372036424" as="sourcePoint"/>
                        <mxPoint x="660.0217523832332" y="583.7357346973979" as="targetPoint"/>
                    </mxGeometry>
                </mxCell>
                <mxCell id="24" value="Создать вакансию" style="ellipse;whiteSpace=wrap;html=1;" vertex="1" parent="1">
                    <mxGeometry x="410" y="280" width="110" height="70" as="geometry"/>
                </mxCell>
                <mxCell id="25" value="" style="endArrow=none;html=1;" edge="1" parent="1" target="24" source="2">
                    <mxGeometry width="50" height="50" relative="1" as="geometry">
                        <mxPoint x="530" y="579.8063372036424" as="sourcePoint"/>
                        <mxPoint x="570.0217523832332" y="503.7357346973979" as="targetPoint"/>
                    </mxGeometry>
                </mxCell>
                <mxCell id="26" value="Найти вавкансию по фильтрам" style="ellipse;whiteSpace=wrap;html=1;" vertex="1" parent="1">
                    <mxGeometry x="530" y="290" width="110" height="70" as="geometry"/>
                </mxCell>
                <mxCell id="27" value="" style="endArrow=none;html=1;" edge="1" parent="1" target="26" source="2">
                    <mxGeometry width="50" height="50" relative="1" as="geometry">
                        <mxPoint x="650" y="649.8063372036424" as="sourcePoint"/>
                        <mxPoint x="690.0217523832332" y="573.7357346973979" as="targetPoint"/>
                    </mxGeometry>
                </mxCell>
                <mxCell id="28" value="Оставить отклик на вакансию" style="ellipse;whiteSpace=wrap;html=1;" vertex="1" parent="1">
                    <mxGeometry x="560" y="370" width="110" height="70" as="geometry"/>
                </mxCell>
                <mxCell id="29" value="" style="endArrow=none;html=1;" edge="1" parent="1" target="28" source="2">
                    <mxGeometry width="50" height="50" relative="1" as="geometry">
                        <mxPoint x="690" y="739.8063372036424" as="sourcePoint"/>
                        <mxPoint x="730.0217523832332" y="663.7357346973979" as="targetPoint"/>
                    </mxGeometry>
                </mxCell>
                <mxCell id="31" value="Изменить вакансию" style="ellipse;whiteSpace=wrap;html=1;" vertex="1" parent="1">
                    <mxGeometry x="380" y="500" width="110" height="70" as="geometry"/>
                </mxCell>
                <mxCell id="32" value="" style="endArrow=none;html=1;" edge="1" parent="1" target="31" source="2">
                    <mxGeometry width="50" height="50" relative="1" as="geometry">
                        <mxPoint x="600" y="799.8063372036424" as="sourcePoint"/>
                        <mxPoint x="640.0217523832332" y="723.7357346973979" as="targetPoint"/>
                    </mxGeometry>
                </mxCell>
            </root>
        </mxGraphModel>
    </diagram>
</mxfile>